Godzilla.Tokyo.SOS.2003.XviD-NvadR 
http://www.imdb.com/title/tt0366526/

Mechagodzilla, the superior-armed, state-of-the-art, 
all-robot version of Godzilla, is undergoing repairs 
after his devastating battle against the world's monsters.

TRAILER:

A pair of psychic fairies appear and warn scientists to 
stop rebuilding Mechagodzilla - but their warning goes 
unheeded. As the great robot nears completion, a series 
of mysterious incidents rock the world and awaken Godzilla, 
who unleashes a reign of terror against Tokyo. Mothra joins 
him and Japan's desperate Prime Minister has no choice but 
to launch the unfinished Mechagodzilla against Mothra and 
Godzilla. But who will fight for whom? And in the end 

- - Will the survivor be monster, robot, or man?

------------- SCREEN SHOTS ----------------- 
http://www.postimg.com/41000/photo-40786.jpg
 
http://www.postimg.com/41000/photo-40787.jpg 
 
http://www.postimg.com/41000/photo-40788.jpg
 
http://www.postimg.com/41000/photo-40789.jpg
 
http://www.postimg.com/41000/photo-40790.jpg
 
http://www.postimg.com/41000/photo-40791.jpg
--------------------------------------------

   General

      Complete name : Godzilla.Tokyo.SOS.2003.XviD-NvadR.avi
      Format : AVI
      Format/Info : Audio Video Interleave
      File size : 699 MiB
      Duration : 1h 27mn
      Overall bit rate : 1 122 Kbps
      Writing application : VirtualDubMod 1.5.10.2 (build 2542/release)
      Writing library : VirtualDubMod build 2542/release

   Video 

      Format : MPEG-4 Visual
      Format profile : AdvancedSimple@L5
      Format settings, BVOP : Yes
      Format settings, QPel : No
      Format settings, GMC : No warppoints
      Format settings, Matrix : Default (H.263)
      Muxing mode : Packed bitstream
      Codec ID : XVID
      Codec ID/Hint : XviD
      Duration : 1h 27mn
      Bit rate : 1 001 Kbps
      Width : 640 pixels
      Height : 272 pixels
      Display aspect ratio : 2.35:1
      Frame rate : 23.976 fps
      Resolution : 24 bits
      Colorimetry : 4:2:0
      Scan type : Progressive
      Bits/(Pixel*Frame) : 0.240
      Stream size : 624 MiB (89%)
      Writing library : XviD 1.2.1 (UTC 2008-12-04)

   Audio 

      Language : Japanese
      Subtitles : English (Hardcoded)
      Other Subs : None
      Format : AC-3
      Format/Info : Audio Coding 3
      Codec ID : 2000
      Duration : 1h 27mn
      Bit rate mode : Constant
      Bit rate : 112 Kbps
      Channel(s) : 2 channels
      Channel positions : L R
      Sampling rate : 48.0 KHz
      Stream size : 69.8 MiB (10%)
      Alignment : Aligned on interleaves
      Interleave, duration : 42 ms (1.00 video frame)
      Interleave, preload duration : 512 ms
      
   Source
   
      Region 2 (Japan) NTSC 720 x 480 (2.35:1)
      192 kb/s AC-3 48000Hz 2 Channel

   Encoders Note

       All black borders removed, production logo's removed.
       
      
------------- TORRENT STATS --------------- 
http://torrent-stats.info/17f2/223ca39e.png